<?xml version="1.0" encoding="utf-8"?>
<!-- Generator: Adobe Illustrator 22.1.0, SVG Export Plug-In . SVG Version: 6.00 Build 0)  -->
<svg version="1.1" id="Layer_1" xmlns="http://www.w3.org/2000/svg" xmlns:xlink="http://www.w3.org/1999/xlink" x="0px" y="0px"
	 viewBox="0 0 1920 1080" style="enable-background:new 0 0 1920 1080;" xml:space="preserve">
<style type="text/css">
	.st0{fill:#0C5B52;}
	.st1{fill:none;}
	.st2{fill:#2DBABA;}
</style>
<path class="st0" d="M615,624"/>
<path class="st0" d="M805,457"/>
<polygon class="st1" points="597.4,543.4 591.4,543.4 591.4,543.4 597.4,543.4 "/>
<g>
	<path class="st2" d="M337,712V466c0-38.7-31.3-70-70-70s-70,31.3-70,70v316c0,38.7,31.3,70,70,70h66v-0.1c1.3,0.1,2.7,0.1,4,0.1
		c38.7,0,70-31.3,70-70C407,743.3,375.7,712,337,712z"/>
	<circle class="st2" cx="267" cy="299" r="70"/>
	<path class="st2" d="M648.4,582.2c-5.9-4.3-13.7-6.8-23.6-7.5c-8.5-0.6-16,2.1-22.4,8.1c-6.5,6-11.9,15.2-16.4,27.8
		c10.7-4.4,21.3-8.7,31.9-12.9C630.5,592.2,640.7,587.1,648.4,582.2z"/>
	<path class="st2" d="M794.7,585.7c-12.4-0.8-23.7,3.9-33.7,14.3c-10.1,10.3-15.6,22.7-16.5,37.1c-0.9,13.8,0.6,24.3,4.5,31.6
		c3.9,7.2,10.3,11.2,19.1,11.7c5.7,0.4,11.1-0.3,16.3-2.1c5.2-1.8,10.2-4.6,15-8.4c-1.1-24.7-1.3-43.1-0.5-55.3
		c0.2-3.3,0.7-7.1,1.4-11.3c0.7-4.2,1.6-9,2.8-14.2c-1.8-1.1-3.3-2-4.7-2.6C796.9,586.1,795.7,585.8,794.7,585.7z"/>
	<path class="st2" d="M1109,469.3L425.5,426c-24-1.5-45,17.9-46.6,43.1l-12.7,200.6c-1.6,25.2,16.7,47.2,40.8,48.7l683.5,43.3
		c24,1.5,45-17.9,46.6-43.1l12.7-200.6C1151.3,492.7,1133,470.8,1109,469.3z M544.5,502.7l-0.6,10c-0.4,6.6-5.9,11.7-12.2,11.3
		l-7.6-0.5l-7.6,120.5l6.8,7.2c6.8,6.2,10.9,15.5,10.2,25.7c-1.1,17.4-15.4,30.6-31.9,29.5c-7.4-0.5-14-3.7-18.9-8.7l-0.1,0.1
		l-14.4-15.3c-8.1-6.1-13.2-16.3-12.5-27.6c0-0.2,0-0.3,0-0.5l0,0l8.5-134.7l-2.8-0.2c-6.3-0.4-11-6.1-10.6-12.7l0.6-10
		c0.4-6.6,5.9-11.7,12.2-11.3l2.8,0.2l0.5-8l0,0c1.3-17.1,15.5-30.1,31.9-29c16.4,1,28.8,15.7,27.9,32.8l0,0l-0.5,8l7.6,0.5
		C540.2,490.4,544.9,496.1,544.5,502.7z M685.9,672.3c-0.8,11.7-9,20.8-24.8,27.2c-13.2,5.3-27,7.5-41.4,6.6
		c-21.9-1.5-39.4-8.5-52.5-21.2c-14.5-14-21-32.8-19.4-56.4c1.7-26,9.3-47.7,22.6-64.9c14.9-19.1,33.8-27.9,56.7-26.3
		c15.9,1.1,28.9,4.8,39.1,11.3c13.3,8.5,19.4,20.8,18.4,36.9c-0.7,11.3-7,21-18.9,29c-5.4,3.7-16.1,8.9-32,15.6L586,650
		c4,5.6,9.1,10,15.1,13.1c6,3.1,13.1,4.9,21.1,5.4c12.3,0.8,22.8-1.3,31.7-6.4c7.9-4.5,14.2-6.7,18.7-6.4
		C682.2,656.4,686.6,661.9,685.9,672.3z M839.2,716.7c-3.9,3.3-8.3,4.8-13.2,4.5c-4.2-0.3-10.6-5.3-19.1-15.1
		c-8.7,4-16.4,6.9-22.9,8.8c-6.6,1.9-12.1,2.7-16.6,2.4c-22-1.5-38.1-9.2-48.3-23.2c-10.1-14-14.3-34.3-12.6-60.7
		c1.6-24.8,11.2-45.5,28.6-62.1c17.4-16.6,37.5-24.1,60.2-22.6c8.7,0.6,18.6,4,29.6,10.3c13.4,7.5,19.8,15.7,19.2,24.5
		c-0.2,3.7-1.5,6.8-3.8,9.4c-1.2,4-2.2,9.1-3.1,15.2c-0.9,6.1-1.6,13.3-2.2,21.6c-1.3,19.5-1,33.6,0.9,42.3c0.2,0.9,2,6.4,5.3,16.3
		c3,9,4.4,14.1,4.4,15.3C845.3,709,843.1,713.4,839.2,716.7z M1057,735.6c-4.2,3.5-8.9,5.1-14.2,4.8c-10.5-0.7-16.3-7-17.4-18.8
		c-0.9-10.7-1.6-25.8-2.1-45.3c-0.4-21.3-0.9-36.5-1.5-45.4c-1.3-18.6-3.8-28-7.6-28.3c-2.1-0.1-7.1,1.9-14.9,6.1
		c-7.8,4.2-13.6,7.9-17.3,11.1c-0.8,11.7-0.7,28.7,0.4,50.9c1.1,22.7,1.2,39.7,0.5,50.9c-0.4,5.9-2.5,10.6-6.3,14.3
		c-3.8,3.7-8.5,5.3-14,5c-5.5-0.4-9.9-2.6-13.2-6.8c-3.3-4.2-4.8-9.2-4.4-15c0.8-11.7,0.8-29.1,0.1-52c-0.7-23-0.7-40.3,0.1-52
		c0.4-6.6,0.3-11.9-0.5-15.9c-11.1,6.2-22.5,17-34.2,32.3c-0.5,0.7-1.4,1.7-2.5,3.1c-1.7,20.8-3,37.1-3.8,48.9
		c-0.2,2.9-0.5,6.8-1,11.6c-0.5,4.9-0.8,8.5-1,10.9c-0.4,5.6-2.7,9.8-6.9,12.7c-3.9,2.7-8.5,3.9-13.9,3.6c-7.8-0.5-12.8-4.7-15-12.5
		c-1.6-5.3-2-13.5-1.3-24.7l3.8-57.5c0.3-5.1,0.7-12.7,0.9-22.7c0.3-10,0.6-17.5,0.9-22.7c0.6-9.2,2.6-17.4,6-24.6
		c4.2-9,9.5-13.3,16-12.9c5.1,0.3,9.5,2.9,13.3,7.6c3.6,4.6,5.3,9.5,5.1,14.6c0,0,0,0.2,0,0.5c0-0.2,0-0.3,0-0.5
		c-0.1-0.3-0.8,4.2-2.1,13.7c15-17.1,28.7-25.2,41-24.4c14.1,0.9,24,7.6,29.8,20.1c5.9-5.2,12.4-8.9,19.3-11.3
		c7-2.3,14.4-3.2,22.2-2.7c17.9,1.2,29.4,12,34.5,32.5c1,4.2,2.1,18.3,3.1,42.2c1.5,16.9,2.9,44.9,4.4,84.1
		C1063.3,727.4,1061.2,732.1,1057,735.6z"/>
</g>
</svg>
